PathFileType	4	(X/Y/Z)	Patient4_TMGait_0pt5_01_left_01.trc.trc
DataRate	CameraRate	NumFrames	NumMarkers	Units	OrigDataRate	OrigDataStartFrame	OrigNumFrames
74.468085106383	74.468085106383	7	33	mm	74.468085106383	89	       141
Frame#	Time	L.ASIS			Sacral			L.Shoulder			Chest			R.Shoulder			Neck			R.ASIS			R.Thigh.Superior			R.Thigh.Lateral			R.Thigh.Inferior			R.Patella			L.Thigh.Superior			L.Thigh.Lateral			L.Thigh.Inferior			L.Patella			L.Shank.Superior			L.Shank.Lateral			L.Shank.Inferior			R.Shank.Superior			R.Shank.Lateral			R.Shank.Inferior			R.Heel			R.Midfoot.Superior			R.Midfoot.Lateral			R.Toe			L.Heel			L.Midfoot.Lateral			L.Midfoot.Superior			L.Toe			L.Elbow			L.Wrist			R.Elbow			R.Wrist			
		X1	Y1	Z1	X2	Y2	Z2	X3	Y3	Z3	X4	Y4	Z4	X5	Y5	Z5	X6	Y6	Z6	X7	Y7	Z7	X8	Y8	Z8	X9	Y9	Z9	X10	Y10	Z10	X11	Y11	Z11	X12	Y12	Z12	X13	Y13	Z13	X14	Y14	Z14	X15	Y15	Z15	X16	Y16	Z16	X17	Y17	Z17	X18	Y18	Z18	X19	Y19	Z19	X20	Y20	Z20	X21	Y21	Z21	X22	Y22	Z22	X23	Y23	Z23	X24	Y24	Z24	X25	Y25	Z25	X26	Y26	Z26	X27	Y27	Z27	X28	Y28	Z28	X29	Y29	Z29	X30	Y30	Z30	X31	Y31	Z31	X32	Y32	Z32	X33	Y33	Z33	

89	2.351714285714	782.465423788863	960.081820112457	335.058162036046	561.654879385362	994.241301845174	482.583662251862	721.532209089115	1429.466418249387	309.125747380364	812.538548898740	1367.939875222344	480.243152569770	707.714277353215	1437.829780628459	645.525256389307	703.034421056326	1491.884492241105	458.464115543874	788.016888247282	937.628774940879	609.220521694968	855.368238722921	750.575508355989	573.652644381119	789.542119723146	633.255665898309	635.026403375079	873.588715598021	589.760562898268	555.282316334652	886.043547060682	499.513319107660	563.060925657128	802.588915883116	734.001576263867	354.774709292989	697.280268373516	628.843220108310	295.860254830308	772.181461387513	538.203485386435	353.715663030759	760.147359600795	457.191658881774	355.112420300460	701.762064050671	397.990151214489	351.886247027761	570.501239659700	329.183886320246	306.000201861208	580.580465383377	202.993204125455	370.142169688289	862.094021406670	408.794753553708	572.362280923385	796.526612287161	302.105535815108	634.876452140278	845.003120426560	209.133638527803	575.344872053687	717.751092859003	42.184651899245	546.961273012813	887.778962693679	99.324487129489	582.877723805795	800.934639984964	36.545605554679	622.026515306836	1008.010603384714	49.670771356793	611.350066910927	407.366772097834	92.303261833011	415.707850082044	474.134858834387	64.200268004324	335.465501719668	571.134535332001	105.025712453028	354.023185312661	678.616258019607	34.540483154680	327.827648398019	769.876580424190	1084.386060208428	175.974520003206	980.697055682750	928.785586786561	187.251451080852	609.005410084744	1106.441456880855	752.724493633657	667.300583183857	851.483186367447	765.656120465370	
90	2.365142857143	781.575906942823	960.926614352379	336.884743000490	562.095113862870	995.279315384154	486.423307466003	720.667862091361	1430.922918344860	312.641212082764	813.507051734430	1368.633188780799	482.479120783700	710.844165279128	1438.311365792346	649.213958710426	703.894360066615	1492.798605199134	462.340349681494	789.540908826725	938.597963414227	610.907508401451	854.484233077609	749.875245102848	575.876819738893	787.252227532038	633.513007764480	637.051363001995	870.413480304542	589.105684790146	556.962914294473	881.582117255685	498.945841992616	564.354666214350	806.768051432165	736.023087778509	356.312347371380	705.019935477546	628.394924500435	297.135824362307	783.037556164871	539.060128321894	354.205536102060	771.951121941521	456.627368600739	354.524455466382	710.957518759957	397.896020036754	351.991928070061	577.173457573610	334.152231831411	306.386158399707	582.840228218411	207.592086643129	369.883089126528	857.297203038447	408.417216977055	573.537952417158	791.387162365733	301.912377983244	635.999755392098	839.072653087038	208.884209413471	575.916165248924	711.085558721648	42.179383150876	547.153524328051	881.194085038745	99.313244576163	583.202222278973	794.269294049764	36.529361078551	622.250817582198	1001.360269638985	49.653849159740	611.558253173430	405.675283876044	105.276770439966	415.254295503814	470.695839172562	73.106281344993	335.213045337807	569.587181606530	108.893347397781	353.310467334272	672.261259305513	33.626756886294	327.828281997481	763.488003521670	1084.683660140402	180.012676891419	968.798498903948	921.353514629882	188.850147928730	616.036242404577	1106.052812305769	757.961393446053	681.862234829499	853.059654694593	770.037686981326	
91	2.378571428571	780.510988996557	961.540265117432	338.582828122894	562.324128609753	996.214962589373	490.143378703144	719.641893143870	1432.235095809698	316.032519027804	814.382328848544	1369.139319001166	484.531933841963	713.927838030663	1438.544433548677	652.708415257607	704.719435458356	1493.557976265554	466.130023973579	790.836879384414	939.451847417184	612.475663498976	853.315500464204	749.043961453819	578.176795567356	784.687604546816	633.663708374411	639.096998168734	866.974833831415	588.377156299160	558.670933322728	876.921215521571	498.329104968621	565.695568960216	811.184305775237	738.218848343396	357.840522176500	713.373427374972	628.077403849048	298.226228820417	794.476025679562	540.262464960041	354.688919949517	784.401288803654	456.444533068822	354.052429103535	720.973447717391	398.086329902301	352.083834153323	584.872083305569	339.531014217378	306.673870903452	585.937206190269	212.848618801142	369.664802739599	852.308450681628	407.982108381989	574.743308450340	786.061536962548	301.640050254913	637.103687310005	833.001892066083	208.562823499783	576.484765358216	704.290232821051	42.150200709601	547.334263720092	874.512174673762	99.161190764336	583.495038548951	787.475500970911	36.455699906609	622.464488229892	994.611656746110	49.418109263662	611.742587013453	405.011996241218	119.388282798549	414.834267285199	468.097890180549	83.230806122095	334.954986581852	568.743481635181	113.623996234471	352.714307607053	666.277007822711	32.891776839566	327.790786840925	756.537700471103	1084.932462939590	183.758777052209	956.079383942433	914.189920792755	190.404686568192	623.213419018750	1105.568061605661	763.330641857902	696.696995479954	854.798459709089	774.565676641229	
92	2.392000000000	779.319543790761	961.914957588839	340.162057219489	562.349914768983	997.027153180033	493.706251045935	718.470260074260	1433.368160359672	319.255773200955	815.151757468261	1369.451532327385	486.383421140044	716.908131111953	1438.524202513215	655.964125084418	705.507249850244	1494.151323047340	469.775531172749	791.900464653370	940.167941021879	613.944740858475	851.945180459581	748.133664421270	580.479677198799	781.979521595151	633.715385054872	641.112839536494	863.414378280406	587.605661978409	560.353537986240	872.206563632909	497.670646594081	567.037755042959	815.693007208828	740.591376405737	359.401031778220	722.126964195085	627.988104985741	299.156659059527	806.194823972922	541.883081698225	355.221643521333	797.217361750173	456.738905380920	353.747728810751	731.578135341998	398.636561531845	352.184571059625	593.395575610383	345.249241389239	306.904306064179	589.833744136335	218.660449762798	369.507400486071	847.257076019498	407.492043999719	575.938342575043	780.663611200396	301.308060498115	638.152271729650	826.877599483290	208.177649648993	577.024859326748	697.413443374678	42.109096721977	547.503184361583	867.767476080225	98.908036740995	583.743423085457	780.597657163852	36.348868186379	622.665793401705	987.803433568488	49.010827549790	611.906929236979	405.451834239675	134.180802952691	414.473671277731	466.503279523190	94.271850966137	334.703697297986	568.700303848093	119.138136447662	352.249972211417	660.959102822742	32.446486030657	327.689366733419	749.062343902471	1085.103560602681	187.206664100599	942.603236308642	907.293234808893	191.905411677835	630.594790161211	1104.948826589893	768.785998172082	711.738792906562	856.630780026238	779.181770973769	
93	2.405428571429	778.043837315612	962.080043607956	341.639042216560	562.187494838159	997.715753608320	497.084408511201	717.183904050615	1434.312783287026	322.274594308660	815.809980831932	1369.587261674065	488.025258512850	719.741626935278	1438.281312595451	658.951279731112	706.261238370262	1494.591896497482	473.220798327958	792.733598326048	940.743590787271	615.339144494627	850.449820400809	747.200425375640	582.715082413225	779.234672126436	633.682504491379	643.047778785139	859.849305199739	586.819685029219	561.961483267043	867.553752759280	496.983326096724	568.328985048666	820.138741689055	743.152315516417	361.035000513316	731.049923202386	628.224344324410	299.960637111867	817.894428944193	543.987820504159	355.847086797578	810.126087471127	457.596598441534	353.634872793449	742.541160190549	399.612124348150	352.307644078638	602.530892698625	351.195421562679	307.116869921597	594.509934981161	224.858253192508	369.418116341012	842.245600818897	406.959464969147	577.078144621614	775.285820581916	300.944631093158	639.110982412030	820.771447272296	207.748085899428	577.512455248887	690.503993405962	42.069442728223	547.660314074025	860.994121189114	98.599517855286	583.941363063824	773.681804960184	36.232894768470	622.853244489544	980.973834989846	48.494075460858	612.057249365196	407.065589339338	149.072380093551	414.191622658366	466.090407163713	105.792392701206	334.467050267112	569.593579345933	125.256645972648	351.913035984019	656.680908521753	32.387727104895	327.496422721391	741.111269902572	1085.192865154775	190.375788138830	928.426572390270	900.650373324307	193.337083962496	638.240942331566	1104.189554418836	774.264766892141	726.941824998063	858.519520830466	783.816941785426	
94	2.418857142857	776.713470489975	962.096695969373	343.034474313819	561.857607524081	998.299602142326	500.263553741824	715.824533363412	1435.082056691209	325.062188582713	816.359111947860	1369.583961907063	489.458681893826	722.401647050071	1437.876740737178	661.654884923539	706.988409181085	1494.912662157111	476.415962076129	793.344768534804	941.192248804758	616.681923897696	848.890465816550	746.293858535006	584.820585198319	776.523446091130	633.583196054467	644.852996006281	856.358668564309	586.042114659916	563.450527207358	863.035299894950	496.282229364117	569.514203064750	824.371313384543	745.917304288372	362.773946104877	739.911622656868	628.870596521001	300.676575107697	829.299234271407	546.625234354583	356.590300117483	822.876229545321	459.084405417539	353.713852824800	753.650660516799	401.058062617990	352.458741937181	612.074490654391	357.213311502319	307.343123043474	599.972324663491	231.207934718612	369.389813821517	837.338905931012	406.402806003828	578.117286358449	769.988116512398	300.580994071979	639.949992289491	814.731423088012	207.299359422809	577.926955537958	683.602286914246	42.043185774963	547.805351772567	854.220161453999	98.278554270317	584.087489960184	766.767283992497	36.127775155041	623.025166747767	974.153922615170	47.932500506102	612.198786593694	409.923926997669	163.389231625427	413.994173717586	467.049781820964	117.243801989526	334.243930187246	571.597214005787	131.703766338863	351.678773859806	653.877695283465	32.775517634319	327.183371051404	732.746831825296	1085.219320624067	193.307507081982	913.599245670143	894.245328977388	194.684031582196	646.200935577619	1103.319446506099	779.690622261996	742.280001552218	860.467250819546	788.390786004383	
95	2.432285714286	775.341919130706	962.047722704085	344.369513991994	561.384659226309	998.812296411568	503.243137685955	714.439154296761	1435.705593376299	327.602304385905	816.808399333637	1369.491986455002	490.692937258724	724.879713429397	1437.392545930167	664.073091870957	707.697141719353	1495.159009383515	479.321634397029	793.748241121230	941.537688171150	617.989480493368	847.305968301062	745.449989905167	586.743686415866	773.876850675735	633.437226019576	646.485648315464	852.976869574595	585.288887864645	564.782131450368	858.675569630893	495.582408273374	570.541008167818	828.260390662058	748.900108951596	364.632147732312	748.496203112515	629.986870360122	301.344422724151	840.173003063137	549.817252080731	357.456214972911	835.247586645196	461.241641210758	353.967054760166	764.724651987037	402.990993216984	352.638685760853	621.848922514723	363.103770692777	307.602506667220	606.256728708933	237.422320997584	369.401751856878	832.560537120097	405.842982333134	579.014895771913	764.794170089985	300.246333393746	640.647460224638	808.778624339429	206.857843671690	578.252782465201	676.735308326961	42.038730902778	547.937386936310	847.464416898997	97.979594970020	584.183527501735	759.881871570124	36.047323449409	623.179553208980	967.363892805022	47.384208608888	612.334392068073	414.101651659766	176.412364423674	413.869384877787	469.578062895629	128.006026861475	334.020541917275	574.915213172412	138.124805299287	351.504375203101	653.019619366403	33.613334692971	326.721315950355	724.044614191444	1085.219453292697	196.058470900753	898.167430496345	888.066381704010	195.934838301548	654.500166511203	1102.398881515911	784.979213645176	757.743538375834	862.518608928626	792.812008158956	
